<mxfile host="app.diagrams.net" agent="Mozilla/5.0 (Windows NT 10.0; Win64; x64) AppleWebKit/537.36 (KHTML, like Gecko) Chrome/134.0.0.0 Safari/537.36" version="26.1.3">
  <diagram name="Page-1" id="WPkPvsWMAVt3ho6a9Iok">
    <mxGraphModel dx="1674" dy="746" grid="1" gridSize="10" guides="1" tooltips="1" connect="1" arrows="1" fold="1" page="1" pageScale="1" pageWidth="827" pageHeight="1169" math="0" shadow="0">
      <root>
        <mxCell id="0" />
        <mxCell id="1" parent="0" />
        <mxCell id="yvNpHiuwGEG8YLa2vKn6-2" value="MainBot " style="swimlane;fontStyle=2;align=center;verticalAlign=top;childLayout=stackLayout;horizontal=1;startSize=26;horizontalStack=0;resizeParent=1;resizeLast=0;collapsible=1;marginBottom=0;rounded=0;shadow=0;strokeWidth=1;" vertex="1" parent="1">
          <mxGeometry x="500" y="300" width="336" height="160" as="geometry">
            <mxRectangle x="230" y="140" width="160" height="26" as="alternateBounds" />
          </mxGeometry>
        </mxCell>
        <mxCell id="yvNpHiuwGEG8YLa2vKn6-3" value="- TELEGRAM_BOT_TOKEN: str &#xa;- logger: Logger" style="text;align=left;verticalAlign=top;spacingLeft=4;spacingRight=4;overflow=hidden;rotatable=0;points=[[0,0.5],[1,0.5]];portConstraint=eastwest;rounded=0;shadow=0;html=0;" vertex="1" parent="yvNpHiuwGEG8YLa2vKn6-2">
          <mxGeometry y="26" width="336" height="44" as="geometry" />
        </mxCell>
        <mxCell id="yvNpHiuwGEG8YLa2vKn6-4" value="" style="line;html=1;strokeWidth=1;align=left;verticalAlign=middle;spacingTop=-1;spacingLeft=3;spacingRight=3;rotatable=0;labelPosition=right;points=[];portConstraint=eastwest;" vertex="1" parent="yvNpHiuwGEG8YLa2vKn6-2">
          <mxGeometry y="70" width="336" height="8" as="geometry" />
        </mxCell>
        <mxCell id="yvNpHiuwGEG8YLa2vKn6-5" value="+ start(update: Update, context: ContextTypes) &#xa; + handle_message(update: Update, context: ContextTypes)&#xa;  + error(update: Update, context: ContextTypes)&#xa;  + main()" style="text;align=left;verticalAlign=top;spacingLeft=4;spacingRight=4;overflow=hidden;rotatable=0;points=[[0,0.5],[1,0.5]];portConstraint=eastwest;" vertex="1" parent="yvNpHiuwGEG8YLa2vKn6-2">
          <mxGeometry y="78" width="336" height="82" as="geometry" />
        </mxCell>
        <mxCell id="yvNpHiuwGEG8YLa2vKn6-10" value="QuestionHandler " style="swimlane;fontStyle=2;align=center;verticalAlign=top;childLayout=stackLayout;horizontal=1;startSize=26;horizontalStack=0;resizeParent=1;resizeLast=0;collapsible=1;marginBottom=0;rounded=0;shadow=0;strokeWidth=1;" vertex="1" parent="1">
          <mxGeometry x="200" y="490" width="336" height="160" as="geometry">
            <mxRectangle x="230" y="140" width="160" height="26" as="alternateBounds" />
          </mxGeometry>
        </mxCell>
        <mxCell id="yvNpHiuwGEG8YLa2vKn6-11" value="- morph: MorphAnalyzer &#xa;- db_path: str" style="text;align=left;verticalAlign=top;spacingLeft=4;spacingRight=4;overflow=hidden;rotatable=0;points=[[0,0.5],[1,0.5]];portConstraint=eastwest;rounded=0;shadow=0;html=0;" vertex="1" parent="yvNpHiuwGEG8YLa2vKn6-10">
          <mxGeometry y="26" width="336" height="44" as="geometry" />
        </mxCell>
        <mxCell id="yvNpHiuwGEG8YLa2vKn6-12" value="" style="line;html=1;strokeWidth=1;align=left;verticalAlign=middle;spacingTop=-1;spacingLeft=3;spacingRight=3;rotatable=0;labelPosition=right;points=[];portConstraint=eastwest;" vertex="1" parent="yvNpHiuwGEG8YLa2vKn6-10">
          <mxGeometry y="70" width="336" height="8" as="geometry" />
        </mxCell>
        <mxCell id="yvNpHiuwGEG8YLa2vKn6-13" value="+ lemmatize_text(text: str): str &#xa;  + find_keywords_in_question(question: str): list[str] &#xa;  + find_answer_in_db(question: str): tuple[list, list]" style="text;align=left;verticalAlign=top;spacingLeft=4;spacingRight=4;overflow=hidden;rotatable=0;points=[[0,0.5],[1,0.5]];portConstraint=eastwest;" vertex="1" parent="yvNpHiuwGEG8YLa2vKn6-10">
          <mxGeometry y="78" width="336" height="82" as="geometry" />
        </mxCell>
        <mxCell id="yvNpHiuwGEG8YLa2vKn6-14" value="FeedbackHandler " style="swimlane;fontStyle=2;align=center;verticalAlign=top;childLayout=stackLayout;horizontal=1;startSize=26;horizontalStack=0;resizeParent=1;resizeLast=0;collapsible=1;marginBottom=0;rounded=0;shadow=0;strokeWidth=1;" vertex="1" parent="1">
          <mxGeometry x="600" y="700" width="380" height="300" as="geometry">
            <mxRectangle x="230" y="140" width="160" height="26" as="alternateBounds" />
          </mxGeometry>
        </mxCell>
        <mxCell id="yvNpHiuwGEG8YLa2vKn6-15" value="- successful_answers: dict &#xa; - unsuccessful_answers: dict &#xa; - SUCCESSFUL_ANSWERS_FILE: str &#xa; - UNSUCCESSFUL_ANSWERS_FILE: str" style="text;align=left;verticalAlign=top;spacingLeft=4;spacingRight=4;overflow=hidden;rotatable=0;points=[[0,0.5],[1,0.5]];portConstraint=eastwest;rounded=0;shadow=0;html=0;" vertex="1" parent="yvNpHiuwGEG8YLa2vKn6-14">
          <mxGeometry y="26" width="380" height="74" as="geometry" />
        </mxCell>
        <mxCell id="yvNpHiuwGEG8YLa2vKn6-16" value="" style="line;html=1;strokeWidth=1;align=left;verticalAlign=middle;spacingTop=-1;spacingLeft=3;spacingRight=3;rotatable=0;labelPosition=right;points=[];portConstraint=eastwest;" vertex="1" parent="yvNpHiuwGEG8YLa2vKn6-14">
          <mxGeometry y="100" width="380" height="50" as="geometry" />
        </mxCell>
        <mxCell id="yvNpHiuwGEG8YLa2vKn6-17" value="+ load_tree(filename: str): dict &#xa;  + save_tree(filename: str, data: dict) &#xa;  + save_successful_answer(question: str, answer: str) &#xa;  + save_unsuccessful_answer(question: str, answer: str) &#xa;  + find_successful_answer(question: str): str&#xa;  + find_unsuccessful_answers(question: str): list[str]&#xa;  + is_answer_unsuccessful(question: str, answer: str): bool&#xa;  + handle_feedback(update: Update, context: ContextTypes)&#xa;  + send_next_answer(update: Update, context: ContextTypes)" style="text;align=left;verticalAlign=top;spacingLeft=4;spacingRight=4;overflow=hidden;rotatable=0;points=[[0,0.5],[1,0.5]];portConstraint=eastwest;" vertex="1" parent="yvNpHiuwGEG8YLa2vKn6-14">
          <mxGeometry y="150" width="380" height="140" as="geometry" />
        </mxCell>
        <mxCell id="yvNpHiuwGEG8YLa2vKn6-19" value="DatabaseInitializer " style="swimlane;fontStyle=2;align=center;verticalAlign=top;childLayout=stackLayout;horizontal=1;startSize=26;horizontalStack=0;resizeParent=1;resizeLast=0;collapsible=1;marginBottom=0;rounded=0;shadow=0;strokeWidth=1;" vertex="1" parent="1">
          <mxGeometry x="1020" y="300" width="336" height="160" as="geometry">
            <mxRectangle x="230" y="140" width="160" height="26" as="alternateBounds" />
          </mxGeometry>
        </mxCell>
        <mxCell id="yvNpHiuwGEG8YLa2vKn6-20" value="- db_path: str" style="text;align=left;verticalAlign=top;spacingLeft=4;spacingRight=4;overflow=hidden;rotatable=0;points=[[0,0.5],[1,0.5]];portConstraint=eastwest;rounded=0;shadow=0;html=0;" vertex="1" parent="yvNpHiuwGEG8YLa2vKn6-19">
          <mxGeometry y="26" width="336" height="24" as="geometry" />
        </mxCell>
        <mxCell id="yvNpHiuwGEG8YLa2vKn6-21" value="" style="line;html=1;strokeWidth=1;align=left;verticalAlign=middle;spacingTop=-1;spacingLeft=3;spacingRight=3;rotatable=0;labelPosition=right;points=[];portConstraint=eastwest;" vertex="1" parent="yvNpHiuwGEG8YLa2vKn6-19">
          <mxGeometry y="50" width="336" height="8" as="geometry" />
        </mxCell>
        <mxCell id="yvNpHiuwGEG8YLa2vKn6-22" value="+ load_text(): str&#xa;  + parse_text(text: str): list[tuple]&#xa;  + create_db(db_path: str): Connection&#xa;  + insert_data(conn: Connection, primary_keyword: str, secondary_keyword: str, answer: str)&#xa;  + main()" style="text;align=left;verticalAlign=top;spacingLeft=4;spacingRight=4;overflow=hidden;rotatable=0;points=[[0,0.5],[1,0.5]];portConstraint=eastwest;" vertex="1" parent="yvNpHiuwGEG8YLa2vKn6-19">
          <mxGeometry y="58" width="336" height="92" as="geometry" />
        </mxCell>
        <mxCell id="yvNpHiuwGEG8YLa2vKn6-23" value="Model" style="swimlane;fontStyle=2;align=center;verticalAlign=top;childLayout=stackLayout;horizontal=1;startSize=26;horizontalStack=0;resizeParent=1;resizeLast=0;collapsible=1;marginBottom=0;rounded=0;shadow=0;strokeWidth=1;" vertex="1" parent="1">
          <mxGeometry x="64" y="720" width="472" height="180" as="geometry">
            <mxRectangle x="230" y="140" width="160" height="26" as="alternateBounds" />
          </mxGeometry>
        </mxCell>
        <mxCell id="yvNpHiuwGEG8YLa2vKn6-24" value="- tokenizer: BertTokenizer&#xa;  - batch_size: int" style="text;align=left;verticalAlign=top;spacingLeft=4;spacingRight=4;overflow=hidden;rotatable=0;points=[[0,0.5],[1,0.5]];portConstraint=eastwest;rounded=0;shadow=0;html=0;" vertex="1" parent="yvNpHiuwGEG8YLa2vKn6-23">
          <mxGeometry y="26" width="472" height="44" as="geometry" />
        </mxCell>
        <mxCell id="yvNpHiuwGEG8YLa2vKn6-25" value="" style="line;html=1;strokeWidth=1;align=left;verticalAlign=middle;spacingTop=-1;spacingLeft=3;spacingRight=3;rotatable=0;labelPosition=right;points=[];portConstraint=eastwest;" vertex="1" parent="yvNpHiuwGEG8YLa2vKn6-23">
          <mxGeometry y="70" width="472" height="50" as="geometry" />
        </mxCell>
        <mxCell id="yvNpHiuwGEG8YLa2vKn6-26" value="+ prepare_data(text: pd.Series, labels: pd.Series, max_length: int): TensorDataset&#xa;  + create_dataloader(dataset: TensorDataset, sampler_type: str): DataLoader " style="text;align=left;verticalAlign=top;spacingLeft=4;spacingRight=4;overflow=hidden;rotatable=0;points=[[0,0.5],[1,0.5]];portConstraint=eastwest;" vertex="1" parent="yvNpHiuwGEG8YLa2vKn6-23">
          <mxGeometry y="120" width="472" height="60" as="geometry" />
        </mxCell>
        <mxCell id="yvNpHiuwGEG8YLa2vKn6-27" value="Synonyms " style="swimlane;fontStyle=2;align=center;verticalAlign=top;childLayout=stackLayout;horizontal=1;startSize=26;horizontalStack=0;resizeParent=1;resizeLast=0;collapsible=1;marginBottom=0;rounded=0;shadow=0;strokeWidth=1;" vertex="1" parent="1">
          <mxGeometry x="780" y="520" width="190" height="70" as="geometry">
            <mxRectangle x="230" y="140" width="160" height="26" as="alternateBounds" />
          </mxGeometry>
        </mxCell>
        <mxCell id="yvNpHiuwGEG8YLa2vKn6-29" value="" style="line;html=1;strokeWidth=1;align=left;verticalAlign=middle;spacingTop=-1;spacingLeft=3;spacingRight=3;rotatable=0;labelPosition=right;points=[];portConstraint=eastwest;" vertex="1" parent="yvNpHiuwGEG8YLa2vKn6-27">
          <mxGeometry y="26" width="190" height="8" as="geometry" />
        </mxCell>
        <mxCell id="yvNpHiuwGEG8YLa2vKn6-30" value="+ synonyms: dict" style="text;align=left;verticalAlign=top;spacingLeft=4;spacingRight=4;overflow=hidden;rotatable=0;points=[[0,0.5],[1,0.5]];portConstraint=eastwest;" vertex="1" parent="yvNpHiuwGEG8YLa2vKn6-27">
          <mxGeometry y="34" width="190" height="36" as="geometry" />
        </mxCell>
        <mxCell id="yvNpHiuwGEG8YLa2vKn6-31" value="DataBase" style="swimlane;fontStyle=2;align=center;verticalAlign=top;childLayout=stackLayout;horizontal=1;startSize=26;horizontalStack=0;resizeParent=1;resizeLast=0;collapsible=1;marginBottom=0;rounded=0;shadow=0;strokeWidth=1;" vertex="1" parent="1">
          <mxGeometry x="1170" y="550" width="190" height="70" as="geometry">
            <mxRectangle x="230" y="140" width="160" height="26" as="alternateBounds" />
          </mxGeometry>
        </mxCell>
        <mxCell id="yvNpHiuwGEG8YLa2vKn6-32" value="" style="line;html=1;strokeWidth=1;align=left;verticalAlign=middle;spacingTop=-1;spacingLeft=3;spacingRight=3;rotatable=0;labelPosition=right;points=[];portConstraint=eastwest;" vertex="1" parent="yvNpHiuwGEG8YLa2vKn6-31">
          <mxGeometry y="26" width="190" height="8" as="geometry" />
        </mxCell>
        <mxCell id="yvNpHiuwGEG8YLa2vKn6-33" value="data" style="text;align=left;verticalAlign=top;spacingLeft=4;spacingRight=4;overflow=hidden;rotatable=0;points=[[0,0.5],[1,0.5]];portConstraint=eastwest;" vertex="1" parent="yvNpHiuwGEG8YLa2vKn6-31">
          <mxGeometry y="34" width="190" height="36" as="geometry" />
        </mxCell>
        <mxCell id="yvNpHiuwGEG8YLa2vKn6-34" style="edgeStyle=orthogonalEdgeStyle;rounded=0;orthogonalLoop=1;jettySize=auto;html=1;exitX=0;exitY=0.5;exitDx=0;exitDy=0;entryX=0.5;entryY=0;entryDx=0;entryDy=0;" edge="1" parent="1" source="yvNpHiuwGEG8YLa2vKn6-3" target="yvNpHiuwGEG8YLa2vKn6-10">
          <mxGeometry relative="1" as="geometry" />
        </mxCell>
        <mxCell id="yvNpHiuwGEG8YLa2vKn6-35" style="edgeStyle=orthogonalEdgeStyle;rounded=0;orthogonalLoop=1;jettySize=auto;html=1;exitX=1;exitY=0.5;exitDx=0;exitDy=0;entryX=0;entryY=0.5;entryDx=0;entryDy=0;dashed=1;" edge="1" parent="1" source="yvNpHiuwGEG8YLa2vKn6-11" target="yvNpHiuwGEG8YLa2vKn6-27">
          <mxGeometry relative="1" as="geometry" />
        </mxCell>
        <mxCell id="yvNpHiuwGEG8YLa2vKn6-38" style="edgeStyle=orthogonalEdgeStyle;rounded=0;orthogonalLoop=1;jettySize=auto;html=1;exitX=0;exitY=0.5;exitDx=0;exitDy=0;entryX=0.25;entryY=0;entryDx=0;entryDy=0;" edge="1" parent="1" source="yvNpHiuwGEG8YLa2vKn6-13" target="yvNpHiuwGEG8YLa2vKn6-23">
          <mxGeometry relative="1" as="geometry" />
        </mxCell>
        <mxCell id="yvNpHiuwGEG8YLa2vKn6-39" style="edgeStyle=orthogonalEdgeStyle;rounded=0;orthogonalLoop=1;jettySize=auto;html=1;exitX=1;exitY=0.5;exitDx=0;exitDy=0;entryX=0.271;entryY=0.007;entryDx=0;entryDy=0;entryPerimeter=0;" edge="1" parent="1" source="yvNpHiuwGEG8YLa2vKn6-13" target="yvNpHiuwGEG8YLa2vKn6-14">
          <mxGeometry relative="1" as="geometry" />
        </mxCell>
        <mxCell id="yvNpHiuwGEG8YLa2vKn6-40" style="edgeStyle=orthogonalEdgeStyle;rounded=0;orthogonalLoop=1;jettySize=auto;html=1;exitX=1;exitY=0.5;exitDx=0;exitDy=0;entryX=0;entryY=0.5;entryDx=0;entryDy=0;" edge="1" parent="1" source="yvNpHiuwGEG8YLa2vKn6-24" target="yvNpHiuwGEG8YLa2vKn6-15">
          <mxGeometry relative="1" as="geometry" />
        </mxCell>
        <mxCell id="yvNpHiuwGEG8YLa2vKn6-41" style="edgeStyle=orthogonalEdgeStyle;rounded=0;orthogonalLoop=1;jettySize=auto;html=1;exitX=0.5;exitY=1;exitDx=0;exitDy=0;entryX=0.132;entryY=-0.014;entryDx=0;entryDy=0;entryPerimeter=0;" edge="1" parent="1" source="yvNpHiuwGEG8YLa2vKn6-19" target="yvNpHiuwGEG8YLa2vKn6-31">
          <mxGeometry relative="1" as="geometry" />
        </mxCell>
      </root>
    </mxGraphModel>
  </diagram>
</mxfile>
